<svg width="104" height="20" viewBox="0 0 104 20" fill="none" xmlns="http://www.w3.org/2000/svg">
<path d="M13.1 1.8H18.476V19.5H15.464V3.816L15.536 3.84L11.732 19.5H7.508L3.656 3.828L3.728 3.792V19.5H0.716V1.8H6.092L9.68 17.772H9.476L13.1 1.8ZM22.9475 14.148V11.904H31.8635L31.5035 12.504C31.5035 12.456 31.5035 12.404 31.5035 12.348C31.5035 12.284 31.5035 12.232 31.5035 12.192C31.5035 11.64 31.3795 11.124 31.1315 10.644C30.8835 10.156 30.5075 9.764 30.0035 9.468C29.4995 9.164 28.8595 9.012 28.0835 9.012C27.3155 9.012 26.6475 9.176 26.0795 9.504C25.5195 9.824 25.0835 10.288 24.7715 10.896C24.4675 11.504 24.3155 12.232 24.3155 13.08C24.3155 13.952 24.4635 14.704 24.7595 15.336C25.0555 15.96 25.4875 16.44 26.0555 16.776C26.6315 17.104 27.3315 17.268 28.1555 17.268C28.7155 17.268 29.1995 17.216 29.6075 17.112C30.0155 17.008 30.3475 16.868 30.6035 16.692C30.8675 16.508 31.0635 16.312 31.1915 16.104C31.3275 15.896 31.4075 15.688 31.4315 15.48H34.5755C34.5275 16.016 34.3475 16.54 34.0355 17.052C33.7315 17.556 33.3035 18.016 32.7515 18.432C32.1995 18.84 31.5275 19.168 30.7355 19.416C29.9515 19.656 29.0555 19.776 28.0475 19.776C26.6795 19.776 25.4835 19.496 24.4595 18.936C23.4355 18.376 22.6355 17.596 22.0595 16.596C21.4915 15.596 21.2075 14.452 21.2075 13.164C21.2075 11.844 21.4955 10.688 22.0715 9.696C22.6555 8.704 23.4635 7.932 24.4955 7.38C25.5275 6.82 26.7115 6.54 28.0475 6.54C29.4235 6.54 30.6115 6.82 31.6115 7.38C32.6195 7.94 33.3955 8.72 33.9395 9.72C34.4835 10.712 34.7555 11.868 34.7555 13.188C34.7555 13.356 34.7515 13.536 34.7435 13.728C34.7355 13.92 34.7235 14.06 34.7075 14.148H22.9475ZM46.3694 19.5V13.848C46.3694 13.528 46.3694 13.248 46.3694 13.008C46.3694 12.76 46.3694 12.536 46.3694 12.336C46.3694 11.76 46.2854 11.244 46.1174 10.788C45.9574 10.324 45.6774 9.96 45.2774 9.696C44.8854 9.432 44.3414 9.3 43.6454 9.3C43.0374 9.3 42.4974 9.448 42.0254 9.744C41.5534 10.032 41.1814 10.432 40.9094 10.944C40.6454 11.448 40.5134 12.032 40.5134 12.696L39.4454 12.036C39.4454 10.972 39.6854 10.028 40.1654 9.204C40.6534 8.372 41.3054 7.72 42.1214 7.248C42.9374 6.776 43.8414 6.54 44.8334 6.54C45.8574 6.54 46.7174 6.74 47.4134 7.14C48.1174 7.54 48.6454 8.108 48.9974 8.844C49.3574 9.58 49.5374 10.444 49.5374 11.436C49.5374 11.82 49.5374 12.252 49.5374 12.732C49.5374 13.212 49.5374 13.684 49.5374 14.148V19.5H46.3694ZM37.3574 19.5V6.756H40.5134V19.5H37.3574ZM58.1197 19.74C57.6637 19.74 57.1997 19.696 56.7277 19.608C56.2557 19.52 55.8237 19.356 55.4317 19.116C55.0397 18.876 54.7237 18.524 54.4837 18.06C54.2437 17.596 54.1237 16.984 54.1237 16.224C54.1237 16.048 54.1237 15.872 54.1237 15.696C54.1237 15.512 54.1237 15.324 54.1237 15.132V9.276H51.1117V6.756H52.3357C52.7517 6.756 53.0797 6.74 53.3197 6.708C53.5597 6.668 53.7357 6.58 53.8477 6.444C53.9597 6.308 54.0317 6.096 54.0637 5.808C54.1037 5.512 54.1237 5.104 54.1237 4.584V2.556H57.2917V6.756H61.0837V9.276H57.2917V14.388C57.2917 14.54 57.2917 14.692 57.2917 14.844C57.2917 14.988 57.2917 15.128 57.2917 15.264C57.2917 15.856 57.3637 16.332 57.5077 16.692C57.6517 17.052 57.9917 17.232 58.5277 17.232C58.7837 17.232 59.0237 17.208 59.2477 17.16C59.4797 17.112 59.6517 17.064 59.7637 17.016V19.488C59.6117 19.544 59.3917 19.6 59.1037 19.656C58.8157 19.712 58.4877 19.74 58.1197 19.74ZM65.1828 4.32L66.6108 2.748V10.308L65.8668 9.36H72.4908V11.88H65.8668L66.6108 10.944V18.552L65.1828 16.98H73.8228V19.5H63.4308V1.8H73.8228V4.32H65.1828ZM81.2744 19.764C80.2264 19.764 79.2544 19.512 78.3584 19.008C77.4704 18.496 76.7584 17.744 76.2224 16.752C75.6864 15.76 75.4184 14.54 75.4184 13.092C75.4184 11.684 75.6904 10.492 76.2344 9.516C76.7864 8.54 77.5064 7.8 78.3944 7.296C79.2904 6.792 80.2504 6.54 81.2744 6.54C82.2744 6.54 83.1984 6.788 84.0464 7.284C84.8944 7.772 85.5744 8.452 86.0864 9.324C86.5984 10.196 86.8544 11.196 86.8544 12.324C86.8544 12.356 86.8544 12.388 86.8544 12.42C86.8544 12.452 86.8544 12.484 86.8544 12.516L85.2944 12.552C85.2944 12.528 85.2944 12.504 85.2944 12.48C85.2944 12.448 85.2944 12.42 85.2944 12.396C85.2944 11.764 85.1344 11.212 84.8144 10.74C84.5024 10.268 84.0944 9.9 83.5904 9.636C83.0944 9.364 82.5664 9.228 82.0064 9.228C81.0864 9.228 80.3024 9.54 79.6544 10.164C79.0064 10.78 78.6824 11.756 78.6824 13.092C78.6824 14.42 79.0064 15.4 79.6544 16.032C80.3024 16.664 81.0864 16.98 82.0064 16.98C82.5904 16.98 83.1304 16.84 83.6264 16.56C84.1224 16.28 84.5224 15.896 84.8264 15.408C85.1384 14.912 85.2944 14.344 85.2944 13.704L86.8544 13.776C86.8544 14.896 86.6024 15.912 86.0984 16.824C85.6024 17.728 84.9344 18.444 84.0944 18.972C83.2544 19.5 82.3144 19.764 81.2744 19.764ZM85.2944 19.5V0.743999H88.4624V19.5H85.2944ZM96.1524 19.74C95.2484 19.74 94.4964 19.588 93.8964 19.284C93.3044 18.98 92.8364 18.58 92.4924 18.084C92.1564 17.588 91.9164 17.04 91.7724 16.44C91.6364 15.84 91.5684 15.24 91.5684 14.64C91.5684 14.344 91.5684 14.036 91.5684 13.716C91.5684 13.396 91.5684 13.072 91.5684 12.744V6.756H94.7364V12.252C94.7364 12.54 94.7364 12.816 94.7364 13.08C94.7364 13.344 94.7364 13.592 94.7364 13.824C94.7364 14.392 94.8044 14.92 94.9404 15.408C95.0764 15.888 95.3244 16.276 95.6844 16.572C96.0524 16.868 96.5684 17.016 97.2324 17.016C97.8644 17.016 98.4084 16.832 98.8644 16.464C99.3204 16.088 99.6724 15.616 99.9204 15.048C100.176 14.48 100.304 13.904 100.304 13.32L101.384 14.04C101.384 14.816 101.264 15.548 101.024 16.236C100.784 16.916 100.436 17.52 99.9804 18.048C99.5244 18.576 98.9724 18.992 98.3244 19.296C97.6844 19.592 96.9604 19.74 96.1524 19.74ZM100.304 19.5V6.756H103.46V19.5H100.304Z" fill="white"/>
</svg>
